<mxfile host="app.diagrams.net" modified="2024-03-25T03:08:52.931Z" agent="Mozilla/5.0 (Windows NT 10.0; Win64; x64) AppleWebKit/537.36 (KHTML, like Gecko) Chrome/122.0.0.0 Safari/537.36" etag="6_oqirnNoIZizkIeSq7p" version="24.1.0" type="github">
  <diagram name="Trang-1" id="bRTVqfyxAPS5Jxo6dtT3">
    <mxGraphModel dx="954" dy="558" grid="1" gridSize="10" guides="1" tooltips="1" connect="1" arrows="1" fold="1" page="1" pageScale="1" pageWidth="827" pageHeight="1169" math="0" shadow="0">
      <root>
        <mxCell id="0" />
        <mxCell id="1" parent="0" />
        <mxCell id="tmiWMO9ow4Z-IAMvWqRj-1" value="Chứng nhận xuất xứ" style="rounded=0;whiteSpace=wrap;html=1;fontSize=14;" parent="1" vertex="1">
          <mxGeometry x="390" y="140" width="120" height="60" as="geometry" />
        </mxCell>
        <mxCell id="tmiWMO9ow4Z-IAMvWqRj-2" value="Ưu đãi" style="rounded=0;whiteSpace=wrap;html=1;fontSize=14;" parent="1" vertex="1">
          <mxGeometry x="254" y="240" width="120" height="60" as="geometry" />
        </mxCell>
        <mxCell id="tmiWMO9ow4Z-IAMvWqRj-3" value="Không ưu đãi" style="rounded=0;whiteSpace=wrap;html=1;fontSize=14;" parent="1" vertex="1">
          <mxGeometry x="520" y="240" width="120" height="60" as="geometry" />
        </mxCell>
        <mxCell id="tmiWMO9ow4Z-IAMvWqRj-4" value="Ưu đãi" style="rounded=0;whiteSpace=wrap;html=1;fontSize=14;" parent="1" vertex="1">
          <mxGeometry x="129" y="340" width="120" height="60" as="geometry" />
        </mxCell>
        <mxCell id="tmiWMO9ow4Z-IAMvWqRj-5" value="Ưu đãi đặc biệt" style="rounded=0;whiteSpace=wrap;html=1;fontSize=14;" parent="1" vertex="1">
          <mxGeometry x="369" y="340" width="120" height="60" as="geometry" />
        </mxCell>
        <mxCell id="tmiWMO9ow4Z-IAMvWqRj-6" value="Đơn phương GSP: Form A REX" style="rounded=0;whiteSpace=wrap;html=1;fontSize=14;" parent="1" vertex="1">
          <mxGeometry x="59" y="440" width="120" height="60" as="geometry" />
        </mxCell>
        <mxCell id="tmiWMO9ow4Z-IAMvWqRj-7" value="Song phương&amp;nbsp;&lt;div&gt;VN-Cuba&lt;/div&gt;" style="rounded=0;whiteSpace=wrap;html=1;fontSize=14;" parent="1" vertex="1">
          <mxGeometry x="199" y="440" width="120" height="60" as="geometry" />
        </mxCell>
        <mxCell id="tmiWMO9ow4Z-IAMvWqRj-8" value="FTAs" style="rounded=0;whiteSpace=wrap;html=1;fontSize=14;" parent="1" vertex="1">
          <mxGeometry x="369" y="440" width="120" height="60" as="geometry" />
        </mxCell>
        <mxCell id="tmiWMO9ow4Z-IAMvWqRj-9" value="Song phương&lt;div style=&quot;font-size: 14px;&quot;&gt;VJ, VK, VC, EAEU, EVFTA, UKVFTA&lt;/div&gt;" style="rounded=0;whiteSpace=wrap;html=1;fontSize=14;" parent="1" vertex="1">
          <mxGeometry x="289" y="540" width="140" height="60" as="geometry" />
        </mxCell>
        <mxCell id="tmiWMO9ow4Z-IAMvWqRj-10" value="Form B" style="rounded=0;whiteSpace=wrap;html=1;fontSize=14;" parent="1" vertex="1">
          <mxGeometry x="520" y="340" width="120" height="60" as="geometry" />
        </mxCell>
        <mxCell id="tmiWMO9ow4Z-IAMvWqRj-11" value="Đa phương&lt;div style=&quot;font-size: 14px;&quot;&gt;D, ASEAN+, CPTPP, RCEP&lt;/div&gt;" style="rounded=0;whiteSpace=wrap;html=1;fontSize=14;" parent="1" vertex="1">
          <mxGeometry x="440" y="540" width="120" height="60" as="geometry" />
        </mxCell>
        <mxCell id="tmiWMO9ow4Z-IAMvWqRj-12" value="" style="endArrow=none;html=1;rounded=0;entryX=0.5;entryY=1;entryDx=0;entryDy=0;exitX=0.5;exitY=0;exitDx=0;exitDy=0;" parent="1" source="tmiWMO9ow4Z-IAMvWqRj-2" target="tmiWMO9ow4Z-IAMvWqRj-1" edge="1">
          <mxGeometry width="50" height="50" relative="1" as="geometry">
            <mxPoint x="450" y="420" as="sourcePoint" />
            <mxPoint x="500" y="370" as="targetPoint" />
          </mxGeometry>
        </mxCell>
        <mxCell id="tmiWMO9ow4Z-IAMvWqRj-13" value="" style="endArrow=none;html=1;rounded=0;exitX=0.5;exitY=0;exitDx=0;exitDy=0;entryX=0.5;entryY=1;entryDx=0;entryDy=0;" parent="1" source="tmiWMO9ow4Z-IAMvWqRj-3" target="tmiWMO9ow4Z-IAMvWqRj-1" edge="1">
          <mxGeometry width="50" height="50" relative="1" as="geometry">
            <mxPoint x="350" y="270" as="sourcePoint" />
            <mxPoint x="450" y="230" as="targetPoint" />
          </mxGeometry>
        </mxCell>
        <mxCell id="tmiWMO9ow4Z-IAMvWqRj-14" value="" style="endArrow=none;html=1;rounded=0;entryX=0.5;entryY=1;entryDx=0;entryDy=0;exitX=0.5;exitY=0;exitDx=0;exitDy=0;" parent="1" source="tmiWMO9ow4Z-IAMvWqRj-4" target="tmiWMO9ow4Z-IAMvWqRj-2" edge="1">
          <mxGeometry width="50" height="50" relative="1" as="geometry">
            <mxPoint x="424" y="420" as="sourcePoint" />
            <mxPoint x="474" y="370" as="targetPoint" />
          </mxGeometry>
        </mxCell>
        <mxCell id="tmiWMO9ow4Z-IAMvWqRj-15" value="" style="endArrow=none;html=1;rounded=0;entryX=0.5;entryY=1;entryDx=0;entryDy=0;exitX=0.5;exitY=0;exitDx=0;exitDy=0;" parent="1" source="tmiWMO9ow4Z-IAMvWqRj-5" target="tmiWMO9ow4Z-IAMvWqRj-2" edge="1">
          <mxGeometry width="50" height="50" relative="1" as="geometry">
            <mxPoint x="424" y="420" as="sourcePoint" />
            <mxPoint x="474" y="370" as="targetPoint" />
          </mxGeometry>
        </mxCell>
        <mxCell id="tmiWMO9ow4Z-IAMvWqRj-16" value="" style="endArrow=none;html=1;rounded=0;entryX=0.5;entryY=1;entryDx=0;entryDy=0;exitX=0.5;exitY=0;exitDx=0;exitDy=0;" parent="1" source="tmiWMO9ow4Z-IAMvWqRj-10" target="tmiWMO9ow4Z-IAMvWqRj-3" edge="1">
          <mxGeometry width="50" height="50" relative="1" as="geometry">
            <mxPoint x="480" y="420" as="sourcePoint" />
            <mxPoint x="530" y="370" as="targetPoint" />
          </mxGeometry>
        </mxCell>
        <mxCell id="tmiWMO9ow4Z-IAMvWqRj-18" value="" style="endArrow=none;html=1;rounded=0;entryX=0.5;entryY=1;entryDx=0;entryDy=0;exitX=0.5;exitY=0;exitDx=0;exitDy=0;" parent="1" source="tmiWMO9ow4Z-IAMvWqRj-6" target="tmiWMO9ow4Z-IAMvWqRj-4" edge="1">
          <mxGeometry width="50" height="50" relative="1" as="geometry">
            <mxPoint x="429" y="410" as="sourcePoint" />
            <mxPoint x="479" y="360" as="targetPoint" />
          </mxGeometry>
        </mxCell>
        <mxCell id="tmiWMO9ow4Z-IAMvWqRj-19" value="" style="endArrow=none;html=1;rounded=0;entryX=0.5;entryY=1;entryDx=0;entryDy=0;exitX=0.5;exitY=0;exitDx=0;exitDy=0;" parent="1" source="tmiWMO9ow4Z-IAMvWqRj-7" target="tmiWMO9ow4Z-IAMvWqRj-4" edge="1">
          <mxGeometry width="50" height="50" relative="1" as="geometry">
            <mxPoint x="429" y="410" as="sourcePoint" />
            <mxPoint x="479" y="360" as="targetPoint" />
          </mxGeometry>
        </mxCell>
        <mxCell id="tmiWMO9ow4Z-IAMvWqRj-20" value="" style="endArrow=none;html=1;rounded=0;entryX=0.5;entryY=1;entryDx=0;entryDy=0;exitX=0.5;exitY=0;exitDx=0;exitDy=0;" parent="1" source="tmiWMO9ow4Z-IAMvWqRj-8" target="tmiWMO9ow4Z-IAMvWqRj-5" edge="1">
          <mxGeometry width="50" height="50" relative="1" as="geometry">
            <mxPoint x="279" y="410" as="sourcePoint" />
            <mxPoint x="329" y="360" as="targetPoint" />
          </mxGeometry>
        </mxCell>
        <mxCell id="tmiWMO9ow4Z-IAMvWqRj-21" value="" style="endArrow=none;html=1;rounded=0;entryX=0.5;entryY=1;entryDx=0;entryDy=0;exitX=0.5;exitY=0;exitDx=0;exitDy=0;" parent="1" source="tmiWMO9ow4Z-IAMvWqRj-9" target="tmiWMO9ow4Z-IAMvWqRj-8" edge="1">
          <mxGeometry width="50" height="50" relative="1" as="geometry">
            <mxPoint x="279" y="520" as="sourcePoint" />
            <mxPoint x="329" y="470" as="targetPoint" />
          </mxGeometry>
        </mxCell>
        <mxCell id="tmiWMO9ow4Z-IAMvWqRj-22" value="" style="endArrow=none;html=1;rounded=0;entryX=0.5;entryY=1;entryDx=0;entryDy=0;exitX=0.5;exitY=0;exitDx=0;exitDy=0;" parent="1" source="tmiWMO9ow4Z-IAMvWqRj-11" target="tmiWMO9ow4Z-IAMvWqRj-8" edge="1">
          <mxGeometry width="50" height="50" relative="1" as="geometry">
            <mxPoint x="279" y="520" as="sourcePoint" />
            <mxPoint x="329" y="470" as="targetPoint" />
          </mxGeometry>
        </mxCell>
      </root>
    </mxGraphModel>
  </diagram>
</mxfile>
